<svg version="1.0" xmlns="http://www.w3.org/2000/svg" width="1181px" height="1181px" viewBox="0 0 1181 1181">
    <defs>
        <radialGradient id="big_circle" cx="50%" cy="0%" r="100%" fx="80%" fy="20%">
            <stop offset="0%" style="stop-color:#36000C;"/>
            <stop offset="100%" style="stop-color:#000000;"/>
        </radialGradient>

        <linearGradient id="small_circle" x1="100%" y1="20%" x2="0%" y2="60%">
            <stop offset="0%" style="stop-color:#050001;"/>
            <stop offset="100%" style="stop-color:#110004;"/>
        </linearGradient>

        <radialGradient id="big_overlay" cx="50%" cy="0%" r="100%" fx="80%" fy="20%">
            <stop offset="0%" style="stop-color:#000000; stop-opacity: 1.0"/>
            <stop offset="65%" style="stop-color:#36000C; stop-opacity: 0"/>
        </radialGradient>

        <linearGradient id="small_overlay" x1="100%" y1="20%" x2="0%" y2="60%">
            <stop offset="50%" style="stop-color:#050001;stop-opacity: 0"/>
            <stop offset="100%" style="stop-color:#110004; stop-opacity: 1.0"/>
        </linearGradient>

        <filter id="big_shadow" x="-50%" y="-50%" width="200%" height="200%">
            <feMorphology operator="dilate" radius="16" in="SourceAlpha" result="thicken" />
            <feGaussianBlur in="thicken" stdDeviation="25" result="blurred" />
            <feFlood flood-color="#110004" result="glowColor" />
            <feComposite in="glowColor" in2="blurred" operator="in" result="softGlow_colored" />

            <feMerge>
                <feMergeNode in="softGlow_colored"/>
                <feMergeNode in="SourceGraphic"/>
            </feMerge>
        </filter>

        <filter id="small_shadow" x="-50%" y="-50%" width="200%" height="200%">
            <feMorphology operator="dilate" radius="16" in="SourceAlpha" result="thicken" />
            <feGaussianBlur in="thicken" stdDeviation="25" result="blurred" />
            <feFlood flood-color="#000000" result="glowColor" />
            <feComposite in="glowColor" in2="blurred" operator="in" result="softGlow_colored" />

            <feMerge>
                <feMergeNode in="softGlow_colored"/>
                <feMergeNode in="SourceGraphic"/>
            </feMerge>
        </filter>
    </defs>

    <g fill="url(#big_circle)" filter="url(#big_shadow)">
        <circle cx="587" cy="523" r="413"/>
    </g>

    <g fill="url(#small_circle)" filter="url(#small_shadow)">
        <circle cx="402" cy="830" r="215"/>
    </g>

    <g fill="#ffffff">
        <path d="M816.3 1015.6 c-7.6 -2.5 -11.2 -5.6 -25.1 -21.9 -7.5 -8.8 -14 -16.4 -14.3 -16.9 -0.3 -0.5 -50.7 -0.8 -111.9 -0.8 -97.9 0 -111.6 0.2 -113 1.5 -1.5 1.4 -14.3 1.5 -107.6 1.3 -105.3 -0.3 -105.9 -0.3 -110.5 -2.4 -6.6 -3.1 -11.4 -7.8 -14.6 -14.2 -2.5 -5.1 -2.8 -6.7 -2.8 -16.2 0 -9.5 0.3 -11.1 2.8 -16.2 3.2 -6.4 8 -11.1 14.6 -14.2 4.6 -2.1 4.8 -2.1 133.4 -2.4 114.4 -0.2 128.7 -0.1 128.7 1.3 0 1.3 7.6 1.5 64.6 1.5 l64.6 0 -5.3 -5.9 c-3 -3.2 -10.3 -11.7 -16.4 -18.9 l-11 -13.1 -42.2 0 c-37 -0.1 -42.3 0.1 -42.3 1.4 0 1.3 -19.5 1.5 -169.8 1.5 -187.6 0 -175.1 0.4 -184.2 -6.4 -12.3 -9.2 -17.5 -31 -10.8 -45.7 1.6 -3.6 28.7 -36.1 88.8 -106.9 78.8 -92.8 86.8 -101.9 89.5 -101.9 2.8 -0.1 7 -4.8 44 -48.2 22.6 -26.5 41.4 -48.9 41.9 -49.9 0.7 -1.5 -5.4 -9.1 -32 -40.4 -19.5 -22.8 -34.1 -40.8 -35.9 -44.2 -5.7 -11 -3.4 -25.3 5.6 -34.3 5.7 -5.7 12.4 -8.5 20.9 -8.5 10 -0.1 16.2 2.7 23.3 10.3 12.6 13.8 81.5 95.7 84.6 100.7 3.1 4.9 3.5 6.5 3.9 13.9 0.4 7.3 0.1 8.9 -2.1 13.6 -1.7 3.7 -15.9 21.1 -44.6 54.9 -38 44.6 -41.9 49.5 -40 50.2 1.8 0.7 1.9 1 0.8 2.5 -0.8 0.9 -34.2 40.1 -74.2 87.2 l-72.8 85.6 133.8 0.3 c117.5 0.2 133.8 0.4 134.6 1.7 0.7 1.3 6.7 1.5 44.5 1.5 34.5 0 45.3 0.3 51.5 1.5 7.7 1.5 13.2 3.8 17.3 7.2 2.3 1.9 44.9 51.8 54.5 63.8 3.1 3.9 19.7 23.4 36.8 43.5 18.8 22 32.2 38.6 33.8 41.8 7 14.1 -0.1 32.8 -14.9 39.2 -6.4 2.8 -14.9 3.4 -20.5 1.6z"/>
        <path d="M535.3 745 c-9.8 -2.1 -16.9 -7.4 -21.2 -16.2 -2.9 -5.6 -3.1 -6.9 -3.1 -16.2 0 -13.3 1.8 -17 15.6 -33.1 9.4 -11 10.8 -12.3 12.4 -11.2 1.1 0.6 2.1 0.9 2.3 0.7 0.2 -0.3 27.2 -32.1 60.1 -70.7 l59.6 -70.2 -107.2 -126.1 c-59 -69.3 -108.4 -128 -109.7 -130.5 -3.3 -6.2 -4 -16.4 -1.6 -23.6 2.4 -7.2 11 -15.9 17.9 -18.2 11.3 -3.9 22.7 -1.4 31.1 6.7 8.2 7.8 234.2 274 236.7 278.9 3.1 5.8 3.2 18.2 0.2 24.7 -1.3 2.7 -30.9 38.3 -74.1 89.1 -39.6 46.5 -72.3 85.1 -72.7 85.7 -0.4 0.6 -0.2 2 0.3 3 0.9 1.6 -0.2 3.4 -6.5 10.7 -8.7 10.2 -10.6 11.8 -16.9 14.6 -5.3 2.4 -16.7 3.3 -23.2 1.9z"/>
        <path d="M737.7 689 c-6.1 -1.6 -11 -4.5 -15.5 -9.3 -5.9 -6.5 -7.5 -10.7 -7.6 -20.2 -0.1 -6.8 0.3 -8.7 2.6 -13 1.5 -2.7 25.8 -32.2 54.1 -65.4 l51.5 -60.5 -7.3 -8.5 c-99.2 -116 -131.7 -155 -133.5 -159.9 -5.7 -15.2 1.1 -31.8 15.9 -38.6 3.4 -1.5 6.7 -2.1 12.2 -2.1 6.4 0 8.4 0.4 13.4 3 5.5 2.8 10.6 8.5 84.7 95.5 43.3 50.9 79.8 94.5 81 97 3.3 6.5 3.3 20.5 0 27 -1.2 2.5 -30 37.1 -64 77 -56.5 66.3 -62.2 72.7 -67.2 75.2 -6.1 3.1 -14.4 4.2 -20.3 2.8z"/>
        <path d="M299.3 557.2 c-7.3 -2.6 -13.6 -8.1 -17 -14.9 -3.6 -7.5 -3.9 -18.3 -0.6 -25.4 2.7 -6 8.5 -11.8 14.8 -14.9 5 -2.5 5.1 -2.5 40.8 -2.8 40.6 -0.4 42.9 -0.1 51.5 6.7 16.7 13.2 13.7 40.3 -5.5 49.7 l-5.8 2.9 -36.5 0.2 c-33.1 0.3 -37 0.1 -41.7 -1.5z"/>
    </g>

    <g fill="url(#big_overlay)">
        <circle cx="587" cy="523" r="413"/>
    </g>

    <g fill="url(#small_overlay)">
        <circle cx="402" cy="830" r="215"/>
    </g>

</svg>
