<svg xmlns="http://www.w3.org/2000/svg" viewBox="0 0 83.857001 102.455" fill="#ffffff">
  <path d="M 0.73449999,60.5545 C 0.41336727,78.844817 13.877517,96.12995 31.635553,100.42273 48.39679,104.99813 67.462635,97.493239 76.623779,82.730011 86.460013,67.932235 84.925566,46.856197 73.064519,33.629938 61.656404,20.015775 41.055327,15.462833 24.980977,23.028921 10.460159,29.459216 0.56297725,44.642209 0.73449999,60.5545 Z m 8.75500001,0 C 9.1928363,45.303978 21.151182,31.075012 36.191091,28.645885 50.673377,25.771001 66.277109,34.286531 71.806703,47.951016 77.701054,61.227543 73.101177,78.038147 61.31585,86.511689 49.616184,95.59445 31.728465,94.949928 20.713715,85.046792 13.660564,79.005612 9.4289779,69.850876 9.4895,60.5545 Z"/>
  <path d="m 44.0755,0.73449999 c 5.483667,0 10.967333,0 16.451,0 C 56.557167,4.9121667 52.587833,9.0898333 48.6185,13.2675 c -3.110667,0 -6.221333,0 -9.332,0 1.596333,-4.1776667 3.192667,-8.3553333 4.789,-12.53300001 z M 26.9465,38.2495 c 10.038333,0 20.076667,0 30.115,0 0,3.345667 0,6.691333 0,10.037 -6.205,0.0033 -12.41,0.0067 -18.615,0.01 0,2.157333 0,4.314667 0,6.472 5.797667,0 11.595333,0 17.393,0 0,3.351 0,6.702 0,10.053 -5.797667,0 -11.595333,0 -17.393,0 0,2.156333 0,4.312667 0,6.469 6.200667,0 12.401333,0 18.602,0 0,3.347667 0,6.695333 0,10.043 -10.034,0 -20.068,0 -30.102,0 0,-14.361333 0,-28.722667 0,-43.084 z"/>
</svg>