<?xml version="1.0" encoding="utf-8"?>
<!DOCTYPE svg>
<svg version="1.0" xmlns="http://www.w3.org/2000/svg" width="566px" height="431px" viewBox="0 0 566 431"
     preserveAspectRatio="xMidYMid meet">
    <g fill="#ffffff">
        <path d="M264 383.9 c-80.6 -4.4 -151.5 -39.8 -211.5 -105.5 -15.5 -17 -49.2 -58.5 -51.1 -63 -0.9 -1.9 19.3 -29.6 36.6 -50.3 24.5 -29.4 48.7 -51.4 78 -70.9 37.2 -24.9 76.9 -39.9 123.5 -46.9 9.7 -1.4 18.2 -1.8 44.5 -1.8 28.7 0.1 34.2 0.3 46.9 2.3 89.3 14 159.8 61.9 224.5 152.5 5.3 7.4 9.6 13.7 9.6 14.1 0 0.8 -12.2 16.8 -24.4 32.1 -37.3 46.8 -73 78.6 -114.1 101.8 -28.1 15.9 -63.6 27.9 -96.8 32.8 -11.4 1.6 -44.4 4.1 -50.2 3.7 -1.1 0 -8.1 -0.4 -15.5 -0.9z m59.4 -34.4 c38.2 -6.1 70.6 -18.6 101.2 -39.1 29.2 -19.5 53.4 -42.7 83.8 -80.7 l11.8 -14.7 -1.8 -2.8 c-10.4 -16 -32.3 -42 -50 -59.2 -21.3 -20.8 -40.8 -35.1 -64.6 -47.5 -36.3 -18.9 -69.6 -27.1 -114.3 -28.2 -38.8 -0.9 -69 3.9 -101.5 16.4 -49.8 19.1 -91.2 52.6 -132.1 106.9 -5.4 7.3 -9.9 13.4 -9.9 13.7 0 0.9 19.4 25.1 29 36.2 50.9 58.7 108 91.6 172.5 99.4 5 0.6 10.4 1.3 12 1.5 7.5 1 54.5 -0.3 63.9 -1.9z"/>
        <path d="M272.5 298 c-24.2 -3.2 -45.3 -15.3 -59.5 -34.2 -11.1 -14.7 -16.7 -29.8 -17.7 -48 -1.5 -27.2 8.3 -51.3 28.6 -70 16.3 -15 36.6 -22.8 59.5 -22.8 23.2 0 43 7.8 59.3 23.4 9.3 8.7 15.1 16.8 20.2 27.8 5.3 11.3 7.2 19.2 7.8 32.9 0.4 8.7 0.1 13.6 -1.1 20 -7.7 38 -38.7 66.5 -77.3 70.9 -9.8 1.1 -11.2 1.1 -19.8 0z"/>
    </g>
</svg>