<?xml version="1.0" encoding="utf-8"?>
<!DOCTYPE svg>
<svg version="1.0" xmlns="http://www.w3.org/2000/svg" width="566px" height="431px" viewBox="0 0 566 431"
     preserveAspectRatio="xMidYMid meet">
    <g fill="#ffffff">
        <path d="M82.7 429 c-4.4 -1.3 -9.5 -5.7 -11.7 -10 -2.4 -4.8 -2.6 -12.8 -0.4 -17.3 0.9 -1.8 14 -15.7 29.2 -31 l27.7 -27.9 -2.5 -1.6 c-37.5 -25.5 -61.5 -47.5 -92.5 -84.7 -7.5 -8.9 -30.8 -39.2 -31.3 -40.5 -0.6 -1.6 21.2 -31.2 36.8 -49.9 24.5 -29.4 48.7 -51.4 78 -70.9 37.2 -24.9 76.9 -39.9 123.5 -46.9 9.7 -1.4 18.2 -1.8 44.5 -1.8 28.7 0.1 34.2 0.3 46.9 2.3 18.2 2.9 40.9 8.7 57.3 14.6 7 2.5 13 4.6 13.5 4.6 0.4 0 15.4 -14.6 33.3 -32.4 35.5 -35.4 35.8 -35.6 45.6 -34.1 11.7 1.7 19.6 15.8 15.4 27.2 -0.6 1.5 -13.7 15.4 -29 30.8 l-28 28 12.3 8.2 c30.1 20.1 59.3 47.8 86.5 82 8.8 11.2 27.2 36.6 27.2 37.7 0 0.8 -12.2 16.8 -24.4 32.1 -50.6 63.5 -100.8 101.8 -159.6 122 -26.6 9.1 -51.4 13.8 -81.5 15.4 -43.6 2.4 -88.3 -4.5 -126 -19.3 l-9 -3.6 -32.5 32.5 c-21.8 21.8 -33.7 32.9 -36.2 34 -4.1 1.6 -8.7 1.8 -13.1 0.5z m240.7 -78.5 c38.2 -6.1 70.6 -18.6 101.2 -39.1 29.2 -19.5 53.4 -42.7 83.8 -80.7 l11.8 -14.7 -1.8 -2.8 c-4.2 -6.5 -20.4 -27.3 -28.4 -36.6 -11 -12.7 -31.9 -33.1 -43 -42 -10 -8 -30.3 -21.6 -32.2 -21.6 -1.6 0 -54.8 53 -54.8 54.6 0 0.6 1.5 4.4 3.4 8.5 4.8 10.5 6.7 18.7 7.3 32 2.2 46.3 -32 85.7 -79.1 90.9 -15.1 1.7 -31.2 -1 -45.6 -7.6 l-7.4 -3.5 -24.5 24.5 -24.4 24.4 12.7 4.1 c14.1 4.5 31.4 8.4 45.1 10 5 0.6 10.4 1.3 12 1.5 7.5 1 54.5 -0.3 63.9 -1.9z m-142.5 -60.9 l28.5 -28.5 -4.7 -9.3 c-6 -12.1 -8.7 -21.9 -9.4 -35 -1.5 -27.2 8.3 -51.3 28.6 -70 16.3 -15 36.6 -22.8 59.5 -22.8 15.8 0 30.4 3.7 43.4 11.1 l5.4 3.2 21.9 -21.9 c12 -12 21.5 -22.1 21.1 -22.5 -2.7 -2.6 -33.9 -10.6 -52.2 -13.4 -16.6 -2.5 -53.4 -3.1 -70.9 -1.1 -43.4 5.1 -78.7 17.8 -113.6 41.1 -30.3 20.1 -54.9 44.4 -82.6 81.1 -5.4 7.3 -9.9 13.4 -9.9 13.7 0 0.9 19.4 25.1 29 36.2 12 13.8 29.5 31.2 41.8 41.4 9.2 7.7 33.6 25.1 35.1 25.1 0.4 0 13.4 -12.8 29 -28.4z"/>
    </g>
</svg>