<svg version="1.0" xmlns="http://www.w3.org/2000/svg" width="540px" height="540px" viewBox="-32 -32 478 478">
    <defs>
        <linearGradient id="gradient" x1="0%" y1="0%" x2="100%" y2="0%">
            <stop offset="0%" style="stop-color:#1033D7;"/>
            <stop offset="100%" style="stop-color:#3C5EF0;"/>
        </linearGradient>

        <filter id="shadow" x="-100%" y="-100%" width="400%" height="400%">
            <feMorphology operator="dilate" radius="0.05" in="SourceAlpha" result="thicken" />
            <feGaussianBlur in="thicken" stdDeviation="16" result="blurred" />
            <feFlood flood-color="#000000" result="glowColor" />
            <feComposite in="glowColor" in2="blurred" operator="in" result="softGlow_colored" />

            <feMerge>
                <feMergeNode in="softGlow_colored"/>
                <feMergeNode in="SourceGraphic"/>
            </feMerge>
        </filter>
    </defs>

    <g fill="url(#gradient)" filter="url(#shadow)">
        <path d="M171.3 369 c-24.7 -3.6 -51.3 -19.9 -80.3 -48.9 -14.8 -14.9 -23.9 -25.5 -39 -45.5 -22 -29.4 -36.3 -58.6 -45 -92.2 -4.8 -18.3 -6.3 -32.3 -5.7 -52.9 0.5 -19.8 2.5 -30 8.6 -44.3 2.7 -6.5 11.4 -21.2 12.5 -21.2 0.2 0 -0.9 3.4 -2.5 7.5 -6.4 16.3 -7.4 22.8 -7.3 47.5 0 20.6 0.2 23.6 2.7 35.8 5.2 25.1 16.2 54.6 28.7 77.2 22.7 41.1 65.6 90.9 98.5 114.5 15 10.7 32.7 19.6 42.4 21.1 2.9 0.5 3.8 1 2.9 1.5 -1.5 1 -9.2 1 -16.5 -0.1z"/>
        <path d="M190.5 353.9 c-11.6 -2.8 -31.7 -13.1 -45 -23.1 -25 -18.8 -57 -54.1 -78.5 -86.8 -14.5 -22.1 -29.7 -58.5 -34.9 -83.5 -4.9 -23.8 -5.3 -51.6 -1.2 -69.7 6.3 -27.5 21.8 -49.2 44.1 -61.6 21.3 -11.8 82.3 -23.6 141 -27.3 23.2 -1.5 73.5 -0.6 92 1.5 46.2 5.4 75.8 15.3 93 31.2 10.6 9.8 14.7 21.9 13.6 39.4 -2 32.4 -20.4 78 -53.4 132.5 -35.4 58.4 -81.8 115.4 -110.8 136.1 -7.6 5.4 -17.3 9.9 -25.7 11.9 -8.7 2.1 -24.4 1.8 -34.2 -0.6z m-42.2 -114.1 c1.9 -1.7 9.5 -21.5 30.8 -80.5 l28.4 -78.3 70.8 0 c38.9 0 70.7 0.3 70.7 0.6 0 0.4 -1.8 2.6 -4 5 -3.3 3.6 -4 5.1 -4 8.4 0 6.7 6.7 11.6 12.9 9.4 1.4 -0.5 7.6 -6.5 13.8 -13.4 9.4 -10.4 11.3 -13.1 11.8 -16.5 0.4 -2.2 0.2 -5.1 -0.3 -6.5 -0.6 -1.4 -6.6 -8.3 -13.3 -15.3 -10.1 -10.4 -12.9 -12.7 -15.2 -12.7 -6.6 0 -11.7 5.9 -10.3 11.6 0.4 1.5 2.3 4.6 4.2 6.8 l3.5 4.1 -76.1 0.5 -76.2 0.5 -1.7 2.2 c-1 1.1 -13.2 33.6 -27.2 72 l-25.4 70 -11.1 -26.1 c-10.2 -24.3 -11.2 -26.2 -14.5 -27.9 -3 -1.5 -5.9 -1.7 -24.6 -1.5 -20.8 0.3 -21.2 0.3 -23.7 2.7 -3.9 3.7 -3.7 10 0.5 13.5 3 2.6 3.2 2.6 20.3 2.6 l17.3 0 13.8 32.8 c9.9 23.6 14.6 33.5 16.6 35.5 3.7 3.4 8.8 3.7 12.2 0.5z m113.2 0.7 c21.6 -5.6 36.5 -28.3 32.8 -49.9 -1.3 -7.5 -5 -16.2 -9.2 -21.5 l-2.9 -3.7 3.3 -2.3 c4.4 -3 8 -7.7 11.2 -14.8 2.1 -4.5 2.6 -7.2 2.6 -13.7 0.1 -7.1 -0.3 -9 -3 -14.8 -3.9 -8.4 -9.7 -14.1 -18.1 -18.1 l-6.7 -3.2 -24.1 -0.3 -24 -0.4 -3.2 2.7 c-2.7 2.2 -3.2 3.4 -3.2 6.9 0 3.3 0.6 4.8 2.6 6.7 2.5 2.4 2.8 2.4 26.7 2.9 22.7 0.5 24.4 0.6 27.7 2.7 4.9 3 8 8.9 8 14.9 0 5.8 -2.3 10 -7.6 14 l-3.7 2.9 -34.5 0.5 -34.4 0.5 -2.4 2.8 c-3.2 3.7 -3.2 8.7 0 12.4 l2.4 2.8 27.9 0.5 c26.6 0.5 28 0.6 32.5 2.8 16.7 8.2 19 33 4.1 43.6 -7.7 5.4 -7.9 5.4 -49 5.5 -41 0.1 -42.3 0.3 -44.9 5.2 -1.7 3.4 -1.7 5.7 0 8.8 2.7 4.9 3.4 5 44.6 5.1 31.6 0 39.7 -0.3 44.5 -1.5z"/>
    </g>
</svg>