<?xml version="1.0" encoding="UTF-8" standalone="no"?>
<svg
   xmlns:dc="http://purl.org/dc/elements/1.1/"
   xmlns:cc="http://creativecommons.org/ns#"
   xmlns:rdf="http://www.w3.org/1999/02/22-rdf-syntax-ns#"
   xmlns:svg="http://www.w3.org/2000/svg"
   xmlns="http://www.w3.org/2000/svg"
   xmlns:sodipodi="http://sodipodi.sourceforge.net/DTD/sodipodi-0.dtd"
   xmlns:inkscape="http://www.inkscape.org/namespaces/inkscape"
   width="926.30078"
   height="517.58447"
   viewBox="0 0 9263.0078 4909.3378"
   version="1.1"
   id="svg42"
   sodipodi:docname="sio2.svg"
   style="fill:#ffffff"
   inkscape:version="0.92.3 (2405546, 2018-03-11)">
  <metadata
     id="metadata48">
    <rdf:RDF>
      <cc:Work
         rdf:about="">
        <dc:format>image/svg+xml</dc:format>
        <dc:type
           rdf:resource="http://purl.org/dc/dcmitype/StillImage" />
        <dc:title></dc:title>
      </cc:Work>
    </rdf:RDF>
  </metadata>
  <defs
     id="defs46" />
  <sodipodi:namedview
     pagecolor="#ffffff"
     bordercolor="#666666"
     borderopacity="1"
     objecttolerance="10"
     gridtolerance="10"
     guidetolerance="10"
     inkscape:pageopacity="0"
     inkscape:pageshadow="2"
     inkscape:window-width="1920"
     inkscape:window-height="1017"
     id="namedview44"
     showgrid="false"
     inkscape:zoom="0.81022652"
     inkscape:cx="772.76769"
     inkscape:cy="195.48968"
     inkscape:window-x="-8"
     inkscape:window-y="-8"
     inkscape:window-maximized="1"
     inkscape:current-layer="svg42" />
  <path
     d="m 6833.7164,5033.191 c -25,-5 -77,-24 -116,-44 -141,-69 -241,-207 -265,-365 -6,-41 -13,-80 -14,-85 -2,-6 -79,-37 -171,-69 -93,-32 -248,-85 -344,-118 -96,-33 -276,-94 -399,-137 l -225,-77 -71,71 c -120,120 -281,213 -443,257 -109,29 -321,36 -432,14 -555,-113 -901,-648 -771,-1191 98,-407 435,-699 860,-747 110,-12 110,-12 126,-102 9,-50 40,-230 69,-399 l 52,-308 -53,-36 c -64,-42 -127,-111 -159,-175 -13,-27 -26,-48 -29,-48 -8,0 -378,50 -445,60 -36,5 -132,19 -215,30 -529,70 -753,101 -777,106 -22,4 -28,11 -28,32 0,15 -9,61 -21,102 -71,257 -292,435 -559,447 -182,9 -332,-49 -461,-177 -120,-120 -179,-261 -179,-430 0,-169 59,-310 179,-431 121,-121 260,-178.9999 431,-178.9999 107,0 169,14 270,61.9999 113,54 221,159 271,265 23,49 39,70 49,68 8,-2 340,-48 737,-101 721,-98 721,-98 727,-137 9,-56 57,-153.9999 104,-212.99993 173,-218 522,-234 723,-33 93,93.00003 139,206.99993 139,343.99993 0,237 -157,432 -386,480 -79,16 -80,17 -87,62 -7,51 -116,693 -122,718 -4,18 6,24 67,45 77,26 201,93 261,141 34,28 40,29 55,16 9,-7 260,-220 557,-472 297,-251 548,-465 558,-474 17,-17 16,-20 -14,-85 -27,-57 -33,-84 -37,-161 -8,-158 35,-274 142,-381 101,-101 232,-148.9999 384,-141.9999 76,3 76,3 172,-257.00003 97,-260 97,-260 57,-303 -21,-24 -51,-69 -65,-100 -42.0726,-103.31665 -34.7697,-219.49829 6,-303.00001 38,-77.9999996 100,-139.999995 180,-176.99999 103.2943,-38.79602 218.8161,-40.38887 306,2 186,90.99999 264,310 176,492 -51,104 -167,188 -281,203 -52,6 -52,6 -156,289 -103,282.99993 -103,282.99993 -63,328.99993 53,61 87,133 106,227 52,254 -123,512 -383,567 -81,16 -196,6 -270,-23 -61,-25 -61,-25 -220,111 -88,75 -350,297 -582,495 -422,358 -422,358 -401,390 42,62 99,184 120,254 22,72 22,72 58,67 21,-3 219,-26 442,-50 223,-25 585,-66 805,-91 220,-24 519,-58 665,-74 389,-44 348,-35 355,-78 46,-281 219,-492 487,-595 166.289,-44.9623 335.795,-55.4739 485,-1 119,45 188,89 278,179 319,319 276,851 -90,1110 -137,97 -259,137 -425,138 -150,0 -301,-42 -401,-114 -22,-15 -36,-19 -48,-13 -10,5 -176,143 -368,307 -350,298 -350,298 -325,360 30,74 40,197 23,279 -54,260 -315,429 -581,377 z m -284,-781 c 31,-45 126,-120 184,-145 136,-59 297,-56 423,8 33,17 42,18 57,7 10,-7 173,-145 362,-305 l 344,-293 -48,-97 c -26,-54 -48,-106 -48,-115 0,-25 -6,-25 -465,27 -220,25 -580,66 -800,91 -220,24 -497,55 -615,69 -118,13 -263,30 -322,36 -108,12 -108,12 -108,51 0,55 -27,178 -56,260 -14,38 -23,73 -19,76 7,7 1054,370 1071,371 6,1 24,-18 40,-41 z"
     id="path30"
     inkscape:connector-curvature="0"
     style="fill:#000000" />
  <path
     d="m 483.71642,4568.191 c -95,-20 -220,-85 -284,-148 -69,-67 -127.000004,-157 -165.000004,-255 -54,-140 -71,-120 147.000004,-179 105,-29 195,-52 201,-52 6,0 11,8 11,19 0,15 -22,24 -125,51 -69,18 -125,34 -125,35 0,1 11,34 24,73 43,125 94,211 176,293 101,102 196,151 332,168 63,8 63,8 -32,9 -52,0 -124,-6 -160,-14 z"
     id="path32"
     inkscape:connector-curvature="0"
     style="fill:#000000" />
  <path
     d="m 921.71642,4564.191 c -239,-43 -401,-187 -490,-434 -17,-47 -29,-88 -27,-91 5,-4 369,-105 381,-105 4,0 10,10 13,23 4,12 19,49 33,81 26,60 26,60 33,27 4,-18 2,-49 -3,-69 -20,-72 -71,-108 -258,-178 -196,-73 -301,-127 -367,-188 -141.000004,-131 -198.000004,-317 -159.000004,-516 44.000004,-225 201.000004,-391 421.000004,-444 51,-13 239,-27 230,-18 -2,2 -34,10 -72,18 -105,22 -188,67 -269,148 -115,115 -165,239 -165,410 -1,161 45,278 146,382 50,51 81,72 185,122 69,32 170,76 226,96 145,54 197,86 222.99998,139 12,24 21,56 21,70 0,37 -22,88 -48.99998,111 -11,11 -21,23 -21,27 0,13 101.99998,30 144.99998,23 52,-7 112,-40 138,-75 30,-41 33,-107 8,-157 -26,-51 -84,-86 -226,-138 -266.99998,-97 -394.99998,-180 -468.99998,-303 -57,-95 -71,-152 -70,-281 0,-176 44,-289 154,-401 110,-111 258,-168 437.99998,-169 294,0 501,141 592,404 18,54 18,54 -147,115 -220,81 -206,79 -221,38 -22,-62 -73,-127 -120,-155 -52,-30 -132,-35 -185.99998,-13 -29,12 -29,12 -9,34 25.99998,27 62.99998,88 62.99998,102 0,6 -25,19 -54.99998,30 -30,10 -55,22 -55,26 0,26 160.99998,111 309.99998,165 339,121 483,303 467,589 -3,55 -13,122 -21,148 -61,191 -222,338 -431,392 -71,19 -269.99998,28 -336.99998,15 z"
     id="path34"
     inkscape:connector-curvature="0"
     style="fill:#000000" />
  <path
     d="m 2033.7164,3614.191 v -940 h 75 75 v 940 940 h -75 -75 z"
     id="path36"
     inkscape:connector-curvature="0"
     style="fill:#000000" />
  <path
     d="m 2443.7164,3609.3358 v -934.8552 h 225 225 v 934.8552 934.8552 h -225 -225 z"
     id="path38"
     inkscape:connector-curvature="0"
     style="fill:#000000" />
  <path
     d="m 3967.7164,4504.191 c -427,-97 -740,-467 -761,-901 -14,-293 83,-548 286,-749 112,-111 242,-191 389,-239 70,-23 240,-56 248,-48 3,2 -28,15 -68,27 -321,96 -564,340 -665,667 -25,81 -27,102 -27,268 -1,201 11,266 79,412 68,147 189,294 321,389 124,89 339,171 459,175 22,1 54,5 70,9 18,5 -25,8 -110,8 -101,0 -163,-5 -221,-18 z"
     id="path40"
     inkscape:connector-curvature="0"
     style="fill:#000000" />
</svg>
