<svg xmlns="http://www.w3.org/2000/svg" width="315.84778" height="356.61194" viewBox="3000 2000 131.60324 1932.856">
	<g transform="translate(93.562013,-1195.144)" style="fill:#ffffff">
		<path d="m 2600,5114 c -95,-20 -220,-85 -284,-148 -69,-67 -127,-157 -165,-255 -54,-140 -71,-120 147,-179 105,-29 195,-52 201,-52 6,0 11,8 11,19 0,15 -22,24 -125,51 -69,18 -125,34 -125,35 0,1 11,34 24,73 43,125 94,211 176,293 101,102 196,151 332,168 63,8 63,8 -32,9 -52,0 -124,-6 -160,-14 z"/>
		<path d="m 3038,5110 c -239,-43 -401,-187 -490,-434 -17,-47 -29,-88 -27,-91 5,-4 369,-105 381,-105 4,0 10,10 13,23 4,12 19,49 33,81 26,60 26,60 33,27 4,-18 2,-49 -3,-69 -20,-72 -71,-108 -258,-178 -196,-73 -301,-127 -367,-188 -141,-131 -198,-317 -159,-516 44,-225 201,-391 421,-444 51,-13 239,-27 230,-18 -2,2 -34,10 -72,18 -105,22 -188,67 -269,148 -115,115 -165,239 -165,410 -1,161 45,278 146,382 50,51 81,72 185,122 69,32 170,76 226,96 145,54 197,86 223,139 12,24 21,56 21,70 0,37 -22,88 -49,111 -11,11 -21,23 -21,27 0,13 102,30 145,23 52,-7 112,-40 138,-75 30,-41 33,-107 8,-157 -26,-51 -84,-86 -226,-138 -267,-97 -395,-180 -469,-303 -57,-95 -71,-152 -70,-281 0,-176 44,-289 154,-401 110,-111 258,-168 438,-169 294,0 501,141 592,404 18,54 18,54 -147,115 -220,81 -206,79 -221,38 -22,-62 -73,-127 -120,-155 -52,-30 -132,-35 -186,-13 -29,12 -29,12 -9,34 26,27 63,88 63,102 0,6 -25,19 -55,30 -30,10 -55,22 -55,26 0,26 161,111 310,165 339,121 483,303 467,589 -3,55 -13,122 -21,148 -61,191 -222,338 -431,392 -71,19 -270,28 -337,15 z"/>
	</g>
</svg>
